<?xml version="1.0" encoding="UTF-8" standalone="no"?>
<!-- Created with Inkscape (http://www.inkscape.org/) -->

<svg
   xmlns:dc="http://purl.org/dc/elements/1.1/"
   xmlns:cc="http://creativecommons.org/ns#"
   xmlns:rdf="http://www.w3.org/1999/02/22-rdf-syntax-ns#"
   xmlns:svg="http://www.w3.org/2000/svg"
   xmlns="http://www.w3.org/2000/svg"
   xmlns:sodipodi="http://sodipodi.sourceforge.net/DTD/sodipodi-0.dtd"
   xmlns:inkscape="http://www.inkscape.org/namespaces/inkscape"
   width="700"
   height="132"
   id="svg3207"
   version="1.1"
   inkscape:version="0.48.4 r9939"
   sodipodi:docname="smc-logo.svg"
   inkscape:export-filename="/home/harri/d/sage/salvus/sagemath.com/images/smc-logo-300px.png"
   inkscape:export-xdpi="45"
   inkscape:export-ydpi="45">
  <defs
     id="defs3209" />
  <sodipodi:namedview
     id="base"
     pagecolor="#ffffff"
     bordercolor="#666666"
     borderopacity="1.0"
     inkscape:pageopacity="0"
     inkscape:pageshadow="2"
     inkscape:zoom="1.4"
     inkscape:cx="324.47202"
     inkscape:cy="-40.611009"
     inkscape:document-units="px"
     inkscape:current-layer="g3315"
     showgrid="true"
     inkscape:window-width="1920"
     inkscape:window-height="1056"
     inkscape:window-x="0"
     inkscape:window-y="24"
     inkscape:window-maximized="1"
     inkscape:showpageshadow="true"
     borderlayer="false"
     inkscape:snap-bbox="true"
     inkscape:snap-grids="true"
     showguides="true"
     inkscape:guide-bbox="true">
    <inkscape:grid
       type="xygrid"
       id="grid3249"
       empspacing="5"
       visible="true"
       enabled="true"
       snapvisiblegridlinesonly="true" />
  </sodipodi:namedview>
  <metadata
     id="metadata3212">
    <rdf:RDF>
      <cc:Work
         rdf:about="">
        <dc:format>image/svg+xml</dc:format>
        <dc:type
           rdf:resource="http://purl.org/dc/dcmitype/StillImage" />
        <dc:title />
      </cc:Work>
    </rdf:RDF>
  </metadata>
  <g
     inkscape:label="Layer 1"
     inkscape:groupmode="layer"
     id="layer1"
     transform="translate(0,-920.36218)">
    <g
       style="display:inline"
       id="g3315"
       transform="matrix(1.3381806,0,0,1.3469268,-19.643557,-344.88934)">
      <rect
         ry="7.2477245"
         rx="7.247725"
         y="939.36176"
         x="14.679302"
         height="98.00087"
         width="239.13065"
         id="rect3225-2-4-5"
         style="color:#000000;fill:#ffffff;fill-opacity:1;fill-rule:nonzero;stroke:none;stroke-width:0.74485314;marker:none;visibility:visible;display:inline;overflow:visible;filter:url(#filter4103);enable-background:accumulate" />
      <rect
         ry="8.9091673"
         rx="8.9091673"
         y="939.36176"
         x="14.679302"
         height="98.00087"
         width="523.09833"
         id="rect3225-2-4"
         style="color:#000000;fill:#1919bf;fill-opacity:1;fill-rule:nonzero;stroke:none;stroke-width:0;marker:none;visibility:visible;display:inline;overflow:visible;filter:url(#filter4103);enable-background:accumulate" />
      <g
         id="g4199-9-5-9"
         style="opacity:0.98999999;color:#000000;fill:#ffffff;fill-opacity:1;fill-rule:nonzero;stroke:none;stroke-width:1;marker:none;visibility:visible;display:inline;overflow:visible;enable-background:accumulate"
         transform="matrix(0.7993857,0,0,0.7993857,-238.72741,138.18865)">
        <path
           id="path5088-3-6-9"
           d="m 360.76623,1008.6494 c -3.68285,0.1551 -7.4547,1.1794 -11.1875,2.6563 -8.5321,3.3758 -13.14971,11.534 -13.71875,17.75 -0.12803,1.3986 -0.10381,2.6938 -0.0312,3.9375 -5.0441,1.8478 -8.66151,4.3946 -10.8125,7.4687 -2.37775,3.3982 -2.89652,7.3163 -2.125,10.7813 1.4864,6.6756 7.17187,12.1081 13.78125,12.5 l 0.34375,-6.8125 c -0.88377,-0.6165 -1.4375,-1.6597 -1.4375,-2.8438 0,-1.8945 1.47757,-3.4375 3.3125,-3.4375 0.71238,0 1.36531,0.2309 1.90625,0.625 l 7.21875,-4.875 c -0.01,-0.1193 -0.0312,-0.2218 -0.0312,-0.3437 0,-2.3039 1.79978,-4.1875 4.03125,-4.1875 0.38353,0 0.74222,0.084 1.09375,0.1875 l 8.1875,-9.8125 c -0.37329,-0.5547 -0.59375,-1.2109 -0.59375,-1.9375 0,-1.8945 1.47757,-3.4375 3.3125,-3.4375 1.44173,0 2.66524,0.956 3.125,2.2812 l 25.6875,0.9063 c 0.47739,-0.6117 1.21113,-1 2.03125,-1 1.43838,0 2.625,1.2024 2.625,2.6875 0,0.1533 -0.0386,0.2912 -0.0625,0.4375 l 16.53125,20.9062 c 0.16036,-0.032 0.33063,-0.062 0.5,-0.062 1.43838,0 2.59375,1.2024 2.59375,2.6875 0,0.824 -0.37224,1.538 -0.9375,2.0313 l 1.71875,5.9375 c 0.26713,0 0.38639,0 0.65625,0 9.11214,-1.0569 14.95565,-7.9389 16.125,-15.375 1.27168,-8.0869 -2.70707,-17.2056 -12,-20.6563 -5.22068,-1.9385 -9.5543,-1.8961 -13.09375,-1 -3.57317,-9.5182 -5.59893,-12.5154 -13,-15.6562 -7.40106,-3.1408 -18.38137,-0.9588 -22.1875,2.1875 -3.76017,-3.1171 -7.81906,-4.4198 -12,-4.5313 -0.52262,-0.014 -1.03638,-0.022 -1.5625,0 z m 57.0625,55.0313 c -0.97946,0 -1.46185,-3e-4 -2.40625,0 l 1.5,5.1562 -3.875,-5.1562 c -1.65877,6e-4 -2.81174,0 -4.375,0 l 1.3125,1.75 -3.1875,9.25 -19.3125,4.625 c -0.26841,-0.4802 -0.6025,-0.8826 -1,-1.25 l 3.5625,-14.3438 c -1.46263,0 -3.36614,0 -4.8125,0 l -3.25,13.125 c -0.21809,0.052 -0.41881,0.1382 -0.625,0.2188 l -11.40625,-13.3438 c -1.75462,0 -4.21774,0.028 -6.0625,0.031 l 14.40625,16.8125 c -0.0325,0.1237 -0.0702,0.2477 -0.0937,0.375 l -31.84375,3.5312 c -0.21654,-0.2295 -0.47864,-0.4338 -0.75,-0.5937 l 10.21875,-16.1563 c 0.20737,0.055 0.4323,0.094 0.65625,0.094 1.43838,0 2.59375,-1.2025 2.59375,-2.6875 0,-0.5073 -0.13784,-0.9651 -0.375,-1.375 -1.42507,0 -2.93502,0 -4.4375,0 -0.23085,0.4026 -0.375,0.8724 -0.375,1.375 0,0.8231 0.34202,1.538 0.90625,2.0312 l -8.65625,13.7188 3.1875,-17.125 c -0.86934,6e-4 -1.50729,0.031 -2.40625,0.031 l -3.625,19.7188 c -0.93269,0.197 -1.68685,0.8053 -2.15625,1.625 l -1.59375,-0.3125 c -0.0242,-1.0606 -0.64865,-1.9601 -1.53125,-2.375 l 0.96875,-18.6563 c -0.82689,10e-5 -1.11647,0 -1.96875,0 -0.11627,0 -0.22802,-0.024 -0.34375,-0.031 l -0.96875,18.7812 c -0.81186,0.4554 -1.375,1.3228 -1.375,2.3438 0,1.485 1.18662,2.6875 2.625,2.6875 0.11598,0 0.23178,-0.016 0.34375,-0.031 l 18.0625,19.125 c -0.006,0.075 0,0.1426 0,0.2188 0,1.485 1.15537,2.6875 2.59375,2.6875 0.53006,0 1.02613,-0.188 1.4375,-0.4688 l 9.78125,5.4688 c -0.0182,0.1453 -0.0312,0.287 -0.0312,0.4375 0,1.8944 1.47757,3.4375 3.3125,3.4375 1.74092,0 3.17074,-1.3967 3.3125,-3.1563 l 26.53125,-8 c 0.60547,0.8414 1.56301,1.4063 2.65625,1.4063 1.83493,0 3.34375,-1.5431 3.34375,-3.4375 0,-0.8056 -0.26849,-1.5397 -0.71875,-2.125 l 11.5,-26.125 c 1.82066,-0.017 3.3125,-1.5225 3.3125,-3.4063 0,-1.6577 -1.14227,-3.0551 -2.65625,-3.375 l -1.90625,-6.5312 z m -78.84375,0.094 c 3.33381,-4e-4 4.97217,0 7.9375,0 l 1.875,-10.0937 -6.625,0.7812 c -0.16755,1.5618 -1.34214,2.8214 -2.84375,3.0313 l -0.34375,6.2812 z m 10.34375,-0.031 c 1.7838,0 3.26573,0 4.9375,0 0.43135,-0.7524 1.19486,-1.2684 2.09375,-1.3125 l 1.28125,-5.9688 -2.96875,-3.4687 -3.4375,0.4062 -1.90625,10.3438 z m 9.375,0 c 1.66593,0 3.60901,0 5.1875,0 l -5.3125,-6.1875 -1.09375,5.0625 c 0.50907,0.2223 0.93516,0.6348 1.21875,1.125 z m 11.25,-0.031 c 4.57463,-0.01 10.93224,0.01 15.28125,0 l 4.9375,-19.875 -1.21875,0.1563 -14.0625,5.375 c 0.0477,0.2036 0.0937,0.4062 0.0937,0.625 0,1.485 -1.18662,2.6875 -2.625,2.6875 -1.00595,0 -1.84741,-0.6068 -2.28125,-1.4688 l -9.84375,1.1563 9.71875,11.3437 z m 20.09375,0 c 5.66059,-0.01 11.96998,-0.026 18.625,-0.031 l -14.03125,-18.5313 -4.59375,18.5625 z m 23,-0.031 c 0.90048,-4e-4 1.44286,2e-4 2.375,0 l -1.5625,-5.375 c -0.0604,-0.014 -0.1288,-0.013 -0.1875,-0.031 l -1.46875,4.3125 0.84375,1.0938 z m -45.90625,-32.2188 c -0.46515,1.3148 -1.69057,2.25 -3.125,2.25 -0.12009,0 -0.22695,-0.018 -0.34375,-0.031 l -1.90625,8.9063 28.25,-3.4062 c 0.51328,-1.1438 1.50616,-2.0137 2.71875,-2.3126 l 0.625,-2.9687 c -0.49378,-0.3694 -0.8521,-0.9005 -1,-1.5313 l -25.21875,-0.9062 z m 28.875,2.6875 c -0.11895,0.06 -0.24673,0.1154 -0.375,0.1563 l -0.53125,2.75 c 1.51308,0.6027 2.59375,2.1002 2.59375,3.875 0,0.6943 -0.17813,1.3303 -0.46875,1.9062 l 14.125,18.625 1.3125,-3.8125 c -0.50055,-0.49 -0.84375,-1.1691 -0.84375,-1.9375 0,-0.4445 0.12754,-0.8494 0.3125,-1.2187 l -16.125,-20.3438 z m -33.71875,0.5625 -7.21875,8.625 c 0.0143,0.017 0.0172,0.045 0.0312,0.062 l 5.46875,-0.6875 1.71875,-8 z m 21.84375,9.8438 -23.40625,2.8437 -0.8125,3.8438 9.84375,-1.125 c -0.002,-0.043 0,-0.082 0,-0.125 0,-1.4851 1.15537,-2.6875 2.59375,-2.6875 0.82012,0 1.55386,0.3883 2.03125,1 l 9.75,-3.75 z m -24.59375,2.9687 -3.125,0.375 2.4375,2.875 0.6875,-3.25 z m -10.6875,1.0938 -6.78125,4.5937 c 0.008,0.032 0.0242,0.062 0.0312,0.094 l 6.90625,-0.7813 0.59375,-3.1875 c -0.27369,-0.2142 -0.53712,-0.4407 -0.75,-0.7187 z m 2.96875,1.5625 -0.375,2.0625 2.34375,-0.2813 -1.53125,-1.7812 c -0.0846,0.01 -0.1641,0.031 -0.25,0.031 -0.0648,0 -0.1235,-0.028 -0.1875,-0.031 z m 59,16.375 4.59375,6.0625 -7.28125,1.75 2.6875,-7.8125 z m 4.84375,9.5625 -10.4375,23.6562 0.21875,-14.6875 c 1.14001,-0.2103 2,-1.2312 2,-2.4687 0,-0.9896 -0.57034,-1.8391 -1.375,-2.25 l 0.71875,-2.125 8.875,-2.125 z m -10.1875,2.4375 -0.53125,1.5312 c -1.31726,0.034 -2.375,1.1631 -2.375,2.5313 0,1.1359 0.7173,2.0936 1.71875,2.4062 l -0.28125,16.9375 c -0.80152,0.248 -1.4849,0.8049 -1.90625,1.5313 l -14.5,-3.1875 c 0,-1.4851 -1.15537,-2.6875 -2.59375,-2.6875 -1.39891,0 -2.56342,1.1338 -2.625,2.5625 l -3.5,0.875 4.375,-13.9688 c 2.44593,-0.064 4.43097,-1.9142 4.8125,-4.3437 l 17.40625,-4.1875 z m -26.75,5.8125 c 0.31669,0.5998 0.73963,1.1352 1.25,1.5625 l -5.0625,16.125 -10.78125,2.7187 -17.09375,-16.5937 c 0.0365,-0.089 0.0645,-0.1886 0.0937,-0.2813 l 31.59375,-3.5312 z m -38.46875,2.9375 0.46875,0.094 c 0.0294,0.1815 0.0691,0.3606 0.125,0.5313 l -0.59375,-0.625 z m 2.625,2.7812 c 0.33913,0.1205 0.71498,0.1875 1.09375,0.1875 0.0768,0 0.14325,-0.026 0.21875,-0.031 l 14.4375,14.0625 c -0.22145,-0.063 -0.44657,-0.125 -0.6875,-0.125 -0.49211,0 -0.95119,0.1613 -1.34375,0.4062 l -13.71875,-14.5 z m 39.71875,11.2188 c 0.38893,0.9797 1.31723,1.6875 2.40625,1.6875 1.05451,0 1.93413,-0.6633 2.34375,-1.5938 l 12.875,2.875 -24.6875,7.4063 2.9375,-9.3125 4.125,-1.0625 z m -8.09375,2.0625 -2.5625,8.25 c -0.20604,0.033 -0.40208,0.086 -0.59375,0.1562 l -6.21875,-6.0312 9.375,-2.375 z m -13.34375,3.375 1.6875,1.625 -2.3125,-1.2813 c 0.005,-0.064 -7.5e-4,-0.1224 0,-0.1875 l 0.625,-0.1562 z"
           style="opacity:0.98999999;color:#000000;fill:#ffffff;fill-opacity:1;fill-rule:nonzero;stroke:none;stroke-width:1;marker:none;visibility:visible;display:inline;overflow:visible;enable-background:accumulate"
           inkscape:connector-curvature="0" />
      </g>
      <g
         transform="scale(1.0032626,0.996748)"
         style="font-size:48.41545105px;font-style:normal;font-variant:normal;font-weight:600;font-stretch:normal;line-height:55.00000119%;letter-spacing:0px;word-spacing:0px;fill:#ffffff;fill-opacity:1;stroke:none;font-family:FreeSans;-inkscape-font-specification:FreeSans Semi-Bold"
         id="text4001">
        <g
           id="g3175"
           transform="translate(114.19532,101.50952)"
           style="fill:#ff00ff">
          <path
             id="path4037"
             transform="matrix(0.74485313,0,0,0.74485311,14.631565,942.42652)"
             d="m 147.28125,5.71875 c -11.37498,0 -17.9375,5.301256 -17.9375,14.53125 0,7.344992 3.72376,10.930004 13.34375,12.75 l 6.625,1.3125 c 6.49999,1.234995 8.90625,3.040016 8.90625,6.875 0,3.717184 -3.19504,6.065007 -8.46875,6.34375 l 1.71875,7.65625 c 5.25601,-0.50115 9.40369,-2.199421 12.15625,-4.9375 l -6.15625,28 c 2.41437,0.733068 4.54475,1.834607 6.34375,3.3125 l 6.5625,-28.875 0,36.9375 2.3125,0 0,-11.625 7.4375,0 0,-25.125 c -2.14176,-1.85397 -3.375,-4.637038 -3.375,-8.03125 0,-0.919477 0.0744,-1.789383 0.21875,-2.59375 l -9.53125,0 c -0.40616,3.194219 -1.69477,5.879431 -3.78125,7.96875 l 1.75,-7.96875 2.03125,0 c 0.0915,-0.719937 0.125,-1.447778 0.125,-2.21875 0,-7.474991 -3.75626,-11.372502 -12.53125,-13.0625 l -7.40625,-1.4375 c -6.955,-1.364994 -8.96875,-2.742499 -8.96875,-6.1875 0,-3.574987 3.1825,-5.84375 8.1875,-5.84375 6.17499,0 9.6125,2.596255 9.9375,7.40625 l 9.09375,0 c 0,-12.9349803 -11.24876,-15.1875 -18.59375,-15.1875 z m 29.6875,36.53125 3.15625,0 0,10.625 c 1.83671,1.58991 4.34046,2.5 7.28125,2.5 3.89999,0 7.47126,-1.684997 10.65625,-5 0,1.819996 0.18625,2.459996 1.03125,3.5 l 9.875,0 0,-1.125 c -1.625,-1.495006 -2.0625,-2.461254 -2.0625,-4.28125 l 0,-19.5 c 0,-7.149987 -4.88501,-10.78125 -14.375,-10.78125 -9.48999,0 -14.415,4.031265 -15,12.15625 l 8.75,0 c 0.45499,-3.639993 1.9525,-4.8125 6.4375,-4.8125 3.50999,0 5.28125,1.159995 5.28125,3.5 0,3.444988 -4.29125,3.638748 -7.28125,4.09375 l -3.65625,0.65625 c -5.94073,0.999377 -9.24814,3.75746 -10.09375,8.46875 z M 180.125,78 l 0,11.625 -7.4375,0 0,35.75 9.09375,0 0,-47.375 -1.65625,0 z m -16.3125,3.5625 -1.84375,8.0625 -2.96875,0 c 1.04564,1.631252 1.46274,3.366752 1.6875,4.40625 l 9.28125,0 c -0.426,-5.374197 -2.65317,-9.590944 -6.15625,-12.46875 z M 159,89.625 c -1.2964,-2.022451 -3.5885,-3.858878 -7.71875,-4.0625 l 0.9375,4.0625 6.78125,0 z m -7.71875,-4.0625 -1.90625,-8.34375 c -2.01206,0.06131 -3.89547,0.35386 -5.65625,0.84375 l 0,9.65625 c 1.86232,-1.423258 4.14643,-2.1875 6.8125,-2.1875 0.2593,0 0.50402,0.01912 0.75,0.03125 z m -7.5625,2.15625 c -0.70327,0.537464 -1.33047,1.18245 -1.90625,1.90625 l 1.90625,0 0,-1.90625 z m -1.90625,1.90625 -7.84375,0 0,-5.28125 c -3.51686,4.285391 -5.46875,10.339554 -5.46875,17.75 0,15.20998 8.27376,24.78125 21.46875,24.78125 11.76499,0 19.6025,-6.83247 20.1875,-17.6875 l -9.46875,0 c -0.585,6.04495 -4.42376,9.5 -10.46875,9.5 -7.54,0 -11.96875,-6.13383 -11.96875,-16.46875 0,-5.453741 1.27654,-9.720114 3.5625,-12.59375 z m -7.84375,-5.28125 c 2.4978,-3.043641 5.79426,-5.180672 9.75,-6.28125 l 0,-23 c -4.00449,-0.525729 -7.28032,-1.769047 -9.75,-3.75 l 0,33.03125 z m 0,-33.03125 0,-9.0625 4.53125,0 c -0.28151,-0.770343 -0.44071,-1.637569 -0.5,-2.5625 l -9.5,0 c 0.29149,5.052443 2.16705,8.976675 5.46875,11.625 z M 138.5,42.25 c 1.26159,3.45228 4.73578,5.3125 10.15625,5.3125 0.35913,0 0.72045,-0.01371 1.0625,-0.03125 L 148.53125,42.25 138.5,42.25 z m 5.21875,12.8125 c 0.18308,0.02403 0.37635,0.04161 0.5625,0.0625 l -0.5625,-2.4375 0,2.375 z m 0.5625,0.0625 5.09375,22.09375 c 0.2779,-0.0085 0.56131,0 0.84375,0 2.30103,0 4.44732,0.260974 6.4375,0.78125 l -5.1875,-22.8125 c -1.07053,0.102073 -2.18062,0.1875 -3.34375,0.1875 -1.3539,0 -2.62038,-0.112704 -3.84375,-0.25 z m 12.375,22.875 0.4375,1.9375 0.375,-1.6875 c -0.26772,-0.08129 -0.53812,-0.178272 -0.8125,-0.25 z M 198,37.28125 198,39.75 c 0,5.264998 -2.60375,8.28125 -7.21875,8.28125 -3.05499,0 -4.9375,-1.649997 -4.9375,-4.25 0,-2.729988 1.41751,-4.001257 5.1875,-4.78125 l 3.125,-0.59375 c 2.405,-0.455002 2.80375,-0.605005 3.84375,-1.125 z"
             style="line-height:55.00000119%;fill:#ff00ff;font-family:FreeSans;-inkscape-font-specification:FreeSans Semi-Bold"
             inkscape:connector-curvature="0" />
          <path
             id="path4041"
             transform="matrix(0.74485313,0,0,0.74485311,14.631565,942.42652)"
             d="m 230.25,18.1875 c -8.31999,0 -14.5625,8.113751 -14.5625,18.96875 0,10.152168 4.95186,17.158711 12.59375,18.09375 l 0.71875,0 0,-8.375 c -2.57119,-1.569223 -4.1875,-5.149518 -4.1875,-9.84375 0,-6.630005 2.98625,-11.25 7.40625,-11.25 4.55,0 7.90625,4.750007 7.90625,11.25 0,3.830715 -1.19975,6.916863 -3.1875,8.78125 l 1.15625,0 0,6.4375 c 0.61442,-0.564001 1.2406,-1.213497 1.90625,-1.96875 l 0,4.75 c 0,0.07382 0.002,0.145733 0,0.21875 l 3.15625,0 0,6.03125 -5.0625,0 0,6.125 c 6.77445,-1.547396 10.5625,-5.879416 10.5625,-12.375 l 0,-36.25 -8.65625,0 0,5.375 c -2.73,-4.160001 -5.72,-5.96875 -9.75,-5.96875 z m 7.84375,49.21875 c -1.83493,0.419129 -3.89812,0.625 -6.15625,0.625 -1.02775,0 -1.99141,-0.03334 -2.9375,-0.125 l 0,14.96875 c 0,5.525116 2.92627,8.25 8.90625,8.25 2.015,0 3.625,-0.198647 5.25,-0.71875 l 0,-6.375 c -0.91,0.130227 -1.41251,0.1875 -2.0625,0.1875 -2.405,0 -3,-0.723806 -3,-3.84375 l 0,-12.96875 z m -9.09375,0.5 0,-6.28125 c -0.25679,-0.102316 -0.4891,-0.213924 -0.71875,-0.34375 l -3.78125,0 0,-3.1875 -8.09375,0 c 0.11559,5.434415 4.98333,9.075162 12.59375,9.8125 z m -4.5,-9.8125 1.34375,0 c 0.38304,1.427676 1.21902,2.498663 2.4375,3.1875 l 0.71875,0 0,0.34375 c 0.92405,0.368172 2.02962,0.5625 3.28125,0.5625 4.4705,0 7.60994,-2.831446 7.71875,-6.9375 l -1.90625,0 0,-3 c -2.50547,2.299864 -4.74271,3.125 -8.03125,3.125 -0.60785,0 -1.20329,-0.05428 -1.78125,-0.125 l -3.78125,0 0,2.84375 z m 12.4375,-12.28125 -7.9375,0 0,1.0625 c 0.91787,0.560186 1.96517,0.875 3.09375,0.875 1.8915,0 3.52613,-0.701647 4.84375,-1.9375 z"
             style="line-height:55.00000119%;fill:#ff00ff;font-family:FreeSans;-inkscape-font-specification:FreeSans Semi-Bold"
             inkscape:connector-curvature="0" />
          <path
             id="path4043"
             transform="matrix(0.74485313,0,0,0.74485311,14.631565,942.42652)"
             d="m 275.25,18.1875 c -10.07499,0 -16.25,7.266259 -16.25,19.03125 0,1.786884 0.16931,3.474472 0.46875,5.03125 l 0.0312,0 0,0.1875 c 1.12805,5.612076 4.1538,9.639139 8.65625,11.59375 0.52305,-0.05726 1.06437,-0.09375 1.625,-0.09375 1.95301,0 4.11006,0.380338 6.03125,1.40625 7.5188,-0.275079 13.54932,-4.673646 15.5,-11.34375 l -8.96875,0 c -1.105,2.794994 -3.65376,4.40625 -6.96875,4.40625 -6.11,0 -7.08626,-4.473761 -7.28125,-9.21875 l 23.53125,0 c 0.065,-0.780006 0.0625,-1.107511 0.0625,-1.5625 0,-15.534996 -9.41751,-19.4375 -16.4375,-19.4375 z m 0.5625,37.15625 c -0.24786,0.0091 -0.499,0.03125 -0.75,0.03125 -2.56949,0 -4.88801,-0.467588 -6.90625,-1.34375 -3.66133,0.400793 -6.43812,2.206877 -8.65625,5.5625 l 0,-17.15625 c -0.0124,-0.06166 -0.0193,-0.125453 -0.0312,-0.1875 l -9.0625,0 0,47.375 9.09375,0 0,-21.0625 c 0,-4.029989 2.93625,-6.90625 7.03125,-6.90625 4.22499,0 5.59375,2.729995 5.59375,6.5 l 0,21.46875 9.09375,0 0,-23.53125 c 0,-5.945427 -2.40399,-9.146798 -5.40625,-10.75 z M 275.125,25.125 c 4.22499,0 6.70375,2.865001 7.09375,8 l -13.96875,0 c 0.585,-5.329991 2.845,-8 6.875,-8 z m 6.1875,52.875 0,16.8125 c -2.275,-3.509954 -5.33251,-5.125 -9.6875,-5.125 -8.385,0 -14.75,8.061275 -14.75,18.65625 0,10.26994 5.91,18.53125 14.75,18.53125 4.35499,0 7.4125,-1.64878 9.6875,-5.09375 l 0,3.59375 9.09375,0 0,-47.375 -9.09375,0 z m -7.65625,19.28125 c 4.61499,0 7.65625,4.49262 7.65625,11.1875 0,6.36998 -3.10625,10.78125 -7.65625,10.78125 -4.55,0 -7.6875,-4.47129 -7.6875,-10.90625 0,-6.49994 3.1375,-11.0625 7.6875,-11.0625 z"
             style="line-height:55.00000119%;fill:#ff00ff;font-family:FreeSans;-inkscape-font-specification:FreeSans Semi-Bold"
             inkscape:connector-curvature="0" />
          <path
             id="path4047"
             transform="matrix(0.74485313,0,0,0.74485311,14.631565,942.42652)"
             d="m 202.9375,53.9375 c -9.48999,0 -14.44625,4.031265 -15.03125,12.15625 l 8.78125,0 c 0.455,-3.639993 1.95251,-4.8125 6.4375,-4.8125 3.50999,0 5.28125,1.160008 5.28125,3.5 0,3.445001 -4.29125,3.638748 -7.28125,4.09375 l -3.65625,0.65625 c -6.95498,1.170003 -10.3125,4.757512 -10.3125,11.0625 0,5.378873 3.09641,9.230598 7.96875,10.25 2.02853,-0.746827 4.29407,-1.15625 6.8125,-1.15625 0.55761,0 1.09108,0.02692 1.625,0.0625 1.71943,-0.835839 3.36263,-2.018367 4.90625,-3.625 0,1.82009 0.18625,2.459929 1.03125,3.5 l 9.875,0 0,-1.125 c -1.62499,-1.49506 -2.0625,-2.461294 -2.0625,-4.28125 l 0,-19.5 c 0,-7.15 -4.88501,-10.78125 -14.375,-10.78125 z m 0.625,35.8125 c -1.82833,0.888774 -3.74014,1.375 -5.75,1.375 -0.93568,0 -1.84858,-0.10573 -2.6875,-0.28125 -6.61017,2.433613 -10.46875,8.634127 -10.46875,17.4375 0,11.56993 6.55376,18.59375 17.34375,18.59375 10.65999,0 17.375,-7.09885 17.375,-18.34375 0,-11.291287 -5.82821,-18.115938 -15.8125,-18.78125 z m 4.84375,-16.71875 0,2.46875 c 0,5.265065 -2.60375,8.28125 -7.21875,8.28125 -3.05499,0 -4.9375,-1.650024 -4.9375,-4.25 0,-2.730055 1.4175,-4.001257 5.1875,-4.78125 l 3.125,-0.59375 c 2.405,-0.455002 2.80375,-0.605005 3.84375,-1.125 z m -6.40625,24 c 5.005,0 8.25,4.48505 8.25,11.375 0,6.56505 -3.375,11.125 -8.25,11.125 -4.93999,0 -8.25,-4.55499 -8.25,-11.25 0,-6.69501 3.31001,-11.25 8.25,-11.25 z"
             style="line-height:55.00000119%;fill:#ff00ff;font-family:FreeSans;-inkscape-font-specification:FreeSans Semi-Bold"
             inkscape:connector-curvature="0" />
          <path
             id="path4059"
             style="line-height:55.00000119%;fill:#ff00ff;font-family:FreeSans;-inkscape-font-specification:FreeSans Semi-Bold"
             d="m 203.53367,1035.8088 0,-26.1444 -6.77816,0 0,16.3644 c 0,3.0986 -2.1787,5.1321 -5.47095,5.1321 -2.90492,0 -4.35739,-1.5493 -4.35739,-4.6963 l 0,-16.8002 -6.77816,0 0,18.2042 c 0,5.7615 3.19543,9.0537 8.7632,9.0537 3.53432,0 5.90668,-1.3072 7.8433,-4.2121 l 0,3.0986 6.77816,0"
             inkscape:connector-curvature="0" />
        </g>
        <g
           style="font-size:41.71177292px;font-weight:bold;line-height:80.00000119%;letter-spacing:4.4691186px;fill:#ffffff;font-family:Monospace;-inkscape-font-specification:Monospace Bold"
           id="text3182">
          <g
             id="g3215"
             transform="translate(-3.5031324,-7.7412315)">
            <g
               id="g3229"
               transform="translate(-39.870005,116.61604)"
               style="fill:#aa0000">
              <path
                 inkscape:connector-curvature="0"
                 id="path3191"
                 d="m 121.84968,964.0942 c -3.02792,-1.15412 -5.0782,-2.36257 -6.15086,-3.62534 -1.07267,-1.27632 -1.609,-2.98715 -1.609,-5.13251 0,-2.75632 0.88257,-4.92201 2.64772,-6.49709 1.76514,-1.57503 4.18882,-2.36255 7.27105,-2.36259 1.39852,4e-5 2.79706,0.16297 4.19561,0.48881 1.39853,0.31233 2.78348,0.78077 4.15489,1.40533 l 0,5.86572 c -1.28994,-0.9097 -2.60022,-1.60218 -3.93085,-2.07744 -1.33066,-0.47521 -2.64773,-0.71282 -3.95121,-0.71285 -1.45286,3e-5 -2.56626,0.29196 -3.3402,0.87579 -0.77396,0.58388 -1.16093,1.41893 -1.16092,2.50515 -1e-5,0.84186 0.27834,1.54113 0.83505,2.09781 0.57026,0.54314 1.75155,1.14736 3.54387,1.81267 l 2.58662,0.97761 c 2.44403,0.89617 4.24312,2.08425 5.39727,3.56424 1.15411,1.48002 1.73118,3.347 1.7312,5.60095 -2e-5,3.06864 -0.90975,5.36333 -2.72919,6.88407 -1.8059,1.50716 -4.54187,2.26075 -8.20793,2.26075 -1.50717,0 -3.02112,-0.18331 -4.54186,-0.54991 -1.50717,-0.35303 -2.9668,-0.88258 -4.37892,-1.58864 l 0,-6.21195 c 1.60221,1.14056 3.1501,1.98919 4.6437,2.54588 1.50715,0.5567 2.99395,0.83505 4.46039,0.83505 1.47999,0 2.62733,-0.33266 3.44203,-0.99799 0.81467,-0.67889 1.22201,-1.62257 1.22203,-2.83102 -2e-5,-0.90972 -0.27158,-1.70404 -0.81469,-2.38295 -0.54313,-0.69247 -1.33066,-1.23559 -2.36258,-1.62936 l -2.95322,-1.12019"
                 style="font-size:41.71177292px;font-style:normal;font-variant:normal;font-weight:bold;font-stretch:normal;line-height:80.00000119%;letter-spacing:4.4691186px;word-spacing:0px;fill:#aa0000;fill-opacity:1;stroke:none;display:inline;font-family:Monospace;-inkscape-font-specification:Monospace Bold"
                 transform="translate(3.5031324,7.7412464)" />
              <path
                 inkscape:connector-curvature="0"
                 id="path3193"
                 d="m 155.28078,966.72155 c -2.22682,10e-6 -3.7815,0.28515 -4.66406,0.85542 -0.88259,0.57028 -1.32387,1.5479 -1.32386,2.93286 -1e-5,1.03193 0.30549,1.8534 0.91651,2.46441 0.61101,0.61102 1.43927,0.91652 2.48479,0.91652 1.57504,0 2.79706,-0.59064 3.66607,-1.77194 0.86898,-1.19486 1.30348,-2.85817 1.30349,-4.98993 l 0,-0.40734 -2.38294,0 m 8.30976,-2.30148 0,13.01456 -5.92682,0 0,-2.54588 c -0.71965,1.00477 -1.64295,1.77872 -2.76992,2.32184 -1.12699,0.54313 -2.36938,0.81469 -3.72717,0.81469 -2.59342,0 -4.61655,-0.68569 -6.06939,-2.05708 -1.43928,-1.37138 -2.15891,-3.28588 -2.15891,-5.74351 0,-2.66129 0.8622,-4.62332 2.58662,-5.88609 1.7244,-1.27632 4.39249,-1.91449 8.00426,-1.9145 l 4.13451,0 0,-0.99799 c -1e-5,-0.96403 -0.35304,-1.69045 -1.05908,-2.17928 -0.6925,-0.50237 -1.71764,-0.75356 -3.07543,-0.75358 -1.42571,2e-5 -2.81067,0.18332 -4.15489,0.54991 -1.33065,0.35305 -2.7224,0.92333 -4.17525,1.71084 l 0,-5.09177 c 1.31707,-0.5431 2.65451,-0.94366 4.01232,-1.20166 1.35779,-0.25796 2.79706,-0.38695 4.31782,-0.38698 3.70679,3e-5 6.30698,0.75361 7.80059,2.26075 1.50714,1.50718 2.26072,4.20242 2.26074,8.08573"
                 style="font-size:41.71177292px;font-style:normal;font-variant:normal;font-weight:bold;font-stretch:normal;line-height:80.00000119%;letter-spacing:4.4691186px;word-spacing:0px;fill:#aa0000;fill-opacity:1;stroke:none;display:inline;font-family:Monospace;-inkscape-font-specification:Monospace Bold"
                 transform="translate(3.5031324,7.7412464)" />
              <path
                 inkscape:connector-curvature="0"
                 id="path3195"
                 d="m 186.93994,965.66246 c -2e-5,-2.03669 -0.38699,-3.66606 -1.16092,-4.8881 -0.77397,-1.23558 -1.79232,-1.85338 -3.05506,-1.8534 -1.2492,2e-5 -2.26076,0.61103 -3.0347,1.83304 -0.76038,1.22204 -1.14056,2.85819 -1.14055,4.90846 -1e-5,2.06387 0.38017,3.70682 1.14055,4.92883 0.77394,1.22203 1.7855,1.83305 3.0347,1.83304 1.26274,10e-6 2.28109,-0.61101 3.05506,-1.83304 0.77393,-1.23559 1.1609,-2.87853 1.16092,-4.92883 m 5.96755,10.06134 c -2e-5,3.65249 -0.82828,6.28663 -2.48478,7.90242 -1.64296,1.62936 -4.31783,2.44404 -8.02463,2.44405 -1.24919,-1e-5 -2.48479,-0.0951 -3.70681,-0.28514 -1.22203,-0.17652 -2.46442,-0.45487 -3.72717,-0.83505 l 0,-5.47874 c 1.12697,0.62459 2.27432,1.08624 3.44204,1.38496 1.1677,0.29871 2.36936,0.44807 3.60497,0.44808 1.68366,-1e-5 2.92605,-0.40056 3.72717,-1.20166 0.80109,-0.78753 1.20164,-2.02313 1.20166,-3.70681 l 0,-2.46442 c -0.58387,1.08625 -1.35782,1.89414 -2.32185,2.42369 -0.96405,0.52954 -2.13855,0.79431 -3.5235,0.79431 -2.60699,0 -4.67764,-1.01835 -6.21196,-3.05506 -1.53432,-2.0367 -2.30148,-4.79983 -2.30148,-8.2894 0,-3.61175 0.76716,-6.47671 2.30148,-8.59491 1.53432,-2.11815 3.59139,-3.17724 6.17123,-3.17726 1.30348,2e-5 2.4644,0.30553 3.48277,0.91652 1.01833,0.61103 1.81944,1.47324 2.40331,2.58662 l 0,-2.91249 5.96755,0 0,21.10029"
                 style="font-size:41.71177292px;font-style:normal;font-variant:normal;font-weight:bold;font-stretch:normal;line-height:80.00000119%;letter-spacing:4.4691186px;word-spacing:0px;fill:#aa0000;fill-opacity:1;stroke:none;display:inline;font-family:Monospace;-inkscape-font-specification:Monospace Bold"
                 transform="translate(3.5031324,7.7412464)" />
              <path
                 inkscape:connector-curvature="0"
                 id="path3197"
                 d="m 221.10134,976.31444 c -1.38498,0.57028 -2.7971,0.99799 -4.23635,1.28313 -1.43929,0.28514 -2.96003,0.42771 -4.56222,0.42771 -3.81545,0 -6.73473,-1.01836 -8.75785,-3.05506 -2.00955,-2.05029 -3.01433,-4.99672 -3.01433,-8.83932 0,-3.72037 0.97083,-6.66001 2.9125,-8.81894 1.94165,-2.15889 4.58937,-3.23834 7.94316,-3.23837 3.38092,3e-5 6.00148,1.0048 7.86169,3.01433 1.87375,1.99599 2.81063,4.81344 2.81065,8.45234 l 0,2.42368 -15.45861,0 c 0.0136,1.79231 0.54312,3.12975 1.58864,4.01231 1.0455,0.88258 2.60697,1.32387 4.68442,1.32386 1.37137,10e-6 2.72239,-0.19687 4.05305,-0.59064 1.33063,-0.39376 2.72238,-1.01835 4.17525,-1.87377 l 0,5.47874 m -5.05103,-12.83126 c -0.0272,-1.57503 -0.43452,-2.76311 -1.22203,-3.56423 -0.77396,-0.81467 -1.92131,-1.22201 -3.44203,-1.22203 -1.3714,2e-5 -2.46443,0.42094 -3.2791,1.26276 -0.81469,0.82828 -1.29671,2.00957 -1.44607,3.54387 l 9.38923,-0.0204"
                 style="font-size:41.71177292px;font-style:normal;font-variant:normal;font-weight:bold;font-stretch:normal;line-height:80.00000119%;letter-spacing:4.4691186px;word-spacing:0px;fill:#aa0000;fill-opacity:1;stroke:none;display:inline;font-family:Monospace;-inkscape-font-specification:Monospace Bold"
                 transform="translate(3.5031324,7.7412464)" />
              <path
                 inkscape:connector-curvature="0"
                 id="path3199"
                 d="m 142.77539,980.396 7.16921,0 3.62534,13.34044 3.60497,-13.34044 7.20995,0 0,30.4081 -5.17324,0 0,-24.35907 -3.218,13.2997 -4.78626,0 -3.25873,-13.2997 0,24.35907 -5.17324,0 0,-30.4081"
                 style="font-size:41.71177292px;font-style:normal;font-variant:normal;font-weight:bold;font-stretch:normal;line-height:80.00000119%;letter-spacing:4.4691186px;word-spacing:0px;fill:#aa0000;fill-opacity:1;stroke:none;display:inline;font-family:Monospace;-inkscape-font-specification:Monospace Bold"
                 transform="translate(3.5031324,7.7412464)" />
              <path
                 inkscape:connector-curvature="0"
                 id="path3201"
                 d="m 184.84213,1000.091 c -2.22681,0 -3.7815,0.2851 -4.66406,0.8554 -0.88258,0.5703 -1.32387,1.5479 -1.32386,2.9328 -1e-5,1.032 0.3055,1.8535 0.91652,2.4645 0.611,0.611 1.43926,0.9165 2.48478,0.9165 1.57504,0 2.79707,-0.5907 3.66608,-1.772 0.86898,-1.1948 1.30347,-2.8581 1.30349,-4.9899 l 0,-0.4073 -2.38295,0 m 8.30977,-2.30151 0,13.01461 -5.92682,0 0,-2.5459 c -0.71965,1.0047 -1.64296,1.7787 -2.76992,2.3218 -1.12699,0.5431 -2.36938,0.8147 -3.72718,0.8147 -2.59341,0 -4.61654,-0.6857 -6.06939,-2.0571 -1.43927,-1.3714 -2.15891,-3.2859 -2.15891,-5.7435 0,-2.6613 0.86221,-4.62331 2.58662,-5.88608 1.72441,-1.27632 4.39249,-1.91449 8.00426,-1.91451 l 4.13452,0 0,-0.99798 c -2e-5,-0.96403 -0.35305,-1.69045 -1.05909,-2.17928 -0.69249,-0.50237 -1.71764,-0.75356 -3.07543,-0.75358 -1.4257,2e-5 -2.81066,0.18332 -4.15488,0.54991 -1.33066,0.35305 -2.72241,0.92332 -4.17525,1.71083 l 0,-5.09176 c 1.31706,-0.5431 2.6545,-0.94366 4.01231,-1.20166 1.3578,-0.25796 2.79707,-0.38695 4.31782,-0.38698 3.7068,3e-5 6.30699,0.75361 7.80059,2.26075 1.50715,1.50718 2.26073,4.20242 2.26075,8.08573"
                 style="font-size:41.71177292px;font-style:normal;font-variant:normal;font-weight:bold;font-stretch:normal;line-height:80.00000119%;letter-spacing:4.4691186px;word-spacing:0px;fill:#aa0000;fill-opacity:1;stroke:none;display:inline;font-family:Monospace;-inkscape-font-specification:Monospace Bold"
                 transform="translate(3.5031324,7.7412464)" />
              <path
                 inkscape:connector-curvature="0"
                 id="path3203"
                 d="m 212.71011,981.51619 0,6.47673 7.80059,0 0,4.5826 -7.80059,0 0,10.79458 c -2e-5,1.0183 0.24439,1.7515 0.73321,2.1996 0.50237,0.4345 1.33063,0.6518 2.48478,0.6518 l 4.5826,0 0,4.5826 -5.0103,0 c -3.42169,0 -5.73674,-0.5432 -6.94518,-1.6294 -1.20845,-1.0998 -1.81267,-3.1298 -1.81267,-6.0898 l 0,-10.50938 -5.82498,0 0,-4.5826 5.82498,0 0,-6.47673 5.96756,0"
                 style="font-size:41.71177292px;font-style:normal;font-variant:normal;font-weight:bold;font-stretch:normal;line-height:80.00000119%;letter-spacing:4.4691186px;word-spacing:0px;fill:#aa0000;fill-opacity:1;stroke:none;display:inline;font-family:Monospace;-inkscape-font-specification:Monospace Bold"
                 transform="translate(3.5031324,7.7412464)" />
              <path
                 inkscape:connector-curvature="0"
                 id="path3205"
                 d="m 248.54161,995.99719 0,14.80691 -5.92682,0 0,-13.8904 c -2e-5,-1.64292 -0.23763,-2.81742 -0.71285,-3.5235 -0.46167,-0.70604 -1.22204,-1.05907 -2.28111,-1.05909 -1.08626,2e-5 -1.93488,0.48204 -2.54589,1.44606 -0.61102,0.95048 -0.91652,2.27434 -0.91651,3.97158 l 0,13.05535 -5.92682,0 0,-31.69122 5.92682,0 0,12.30171 c 0.42091,-1.26273 1.14054,-2.24035 2.15891,-2.93286 1.01834,-0.69245 2.24715,-1.03869 3.68644,-1.03872 2.15889,3e-5 3.78825,0.71966 4.8881,2.15891 1.0998,1.42572 1.64971,3.55747 1.64973,6.39527"
                 style="font-size:41.71177292px;font-style:normal;font-variant:normal;font-weight:bold;font-stretch:normal;line-height:80.00000119%;letter-spacing:4.4691186px;word-spacing:0px;fill:#aa0000;fill-opacity:1;stroke:none;display:inline;font-family:Monospace;-inkscape-font-specification:Monospace Bold"
                 transform="translate(3.5031324,7.7412464)" />
              <path
                 inkscape:connector-curvature="0"
                 d="m 118.68987,1019.0609 0,-5.2955 18.10634,0 0,5.2955 -6.04903,0 0,19.8171 6.04903,0 0,5.2955 -18.10634,0 0,-5.2955 6.04903,0 0,-19.8171 -6.04903,0"
                 id="path3207"
                 style="fill:#aa0000" />
              <path
                 inkscape:connector-curvature="0"
                 d="m 166.56123,1029.3666 0,14.8069 -5.92682,0 0,-13.8904 c -1e-5,-1.6565 -0.23763,-2.8378 -0.71285,-3.5438 -0.46166,-0.7197 -1.22203,-1.0795 -2.28111,-1.0795 -1.07268,0 -1.9213,0.482 -2.54588,1.4461 -0.61102,0.964 -0.91653,2.3015 -0.91652,4.0123 l 0,13.0553 -5.92682,0 0,-22.8112 5.92682,0 0,3.4217 c 0.42091,-1.2627 1.14054,-2.2403 2.15891,-2.9328 1.01834,-0.6925 2.24715,-1.0387 3.68644,-1.0388 2.15889,10e-5 3.78826,0.7197 4.8881,2.1589 1.0998,1.4258 1.64971,3.5575 1.64973,6.3953"
                 id="path3209"
                 style="fill:#aa0000" />
              <path
                 inkscape:connector-curvature="0"
                 d="m 195.91892,1043.0125 c -1.0048,0.5839 -2.08425,1.0184 -3.23837,1.3035 -1.15415,0.2988 -2.39654,0.4481 -3.72717,0.4481 -3.51673,0 -6.26628,-1.0591 -8.24867,-3.1772 -1.9824,-2.1182 -2.9736,-5.0511 -2.97359,-8.7986 -1e-5,-3.7611 0.99798,-6.7008 2.99396,-8.819 1.99596,-2.1317 4.7523,-3.1976 8.26903,-3.1976 1.22201,0 2.39651,0.1426 3.5235,0.4277 1.14054,0.2852 2.27431,0.7265 3.40131,1.3239 l 0,5.4583 c -0.86902,-0.7467 -1.82627,-1.317 -2.87176,-1.7108 -1.03195,-0.4073 -2.10462,-0.611 -3.218,-0.611 -1.94167,0 -3.43526,0.6178 -4.48076,1.8534 -1.04552,1.2356 -1.56827,2.994 -1.56826,5.2751 -10e-6,2.2811 0.52274,4.0327 1.56826,5.2547 1.0455,1.222 2.53909,1.833 4.48076,1.833 1.15412,0 2.23357,-0.1901 3.23837,-0.5703 1.00475,-0.3937 1.95521,-0.9844 2.85139,-1.7719 l 0,5.4787"
                 id="path3211"
                 style="fill:#aa0000" />
              <path
                 inkscape:connector-curvature="0"
                 d="m 207.05678,1036.6988 6.78224,0 0,7.4747 -6.78224,0 0,-7.4747"
                 id="path3213"
                 style="fill:#aa0000" />
            </g>
          </g>
        </g>
      </g>
      <text
         xml:space="preserve"
         style="font-size:48.41545105px;font-style:normal;font-variant:normal;font-weight:600;font-stretch:normal;line-height:55.00000119%;letter-spacing:0px;word-spacing:0px;fill:#008000;fill-opacity:1;stroke:none;display:inline;font-family:FreeSans;-inkscape-font-specification:FreeSans Semi-Bold"
         x="-56.723293"
         y="1087.7958"
         id="text4001-2"
         sodipodi:linespacing="55.000001%"
         transform="scale(1.0032626,0.996748)"><tspan
           sodipodi:role="line"
           id="tspan4003-0"
           x="-56.723293"
           y="1087.7958"
           style="font-size:48.41545105px;font-style:normal;font-variant:normal;font-weight:600;font-stretch:normal;line-height:55.00000119%;fill:#008000;font-family:FreeSans;-inkscape-font-specification:FreeSans Semi-Bold"
           dx="0 2.9262083 1.5961136 2.6601894">Sage</tspan><tspan
           sodipodi:role="line"
           x="-56.723293"
           y="1114.4243"
           style="font-size:48.41545105px;font-style:normal;font-variant:normal;font-weight:600;font-stretch:normal;line-height:55.00000119%;fill:#008000;font-family:FreeSans;-inkscape-font-specification:FreeSans Semi-Bold"
           dx="2.1281517 -0.53203803 1.3300947 0.79805696 0"
           id="tspan4005-2">Math</tspan><tspan
           sodipodi:role="line"
           x="-56.723293"
           y="1141.0527"
           style="font-size:48.41545105px;font-style:normal;font-variant:normal;font-weight:600;font-stretch:normal;line-height:55.00000119%;fill:#008000;font-family:FreeSans;-inkscape-font-specification:FreeSans Semi-Bold"
           dx="-1.2315432e-08 -3.1922271 -2.9262083 -2.9262083 -2.6601894 0 0 0 0 0"
           id="tspan4007-5">Cloud</tspan></text>
      <g
         transform="matrix(1.0032626,0,0,0.996748,7.7097584,-2.640446e-5)"
         style="font-size:35.75294876px;font-style:normal;font-variant:normal;font-weight:bold;font-stretch:normal;line-height:85.00000238%;letter-spacing:4.4691186px;word-spacing:0px;fill:#ffffff;fill-opacity:1;stroke:none;font-family:OCRABold;-inkscape-font-specification:OCRABold Bold"
         id="text3014">
        <g
           id="g3061"
           transform="translate(-1.4897063,0)">
          <text
             xml:space="preserve"
             style="font-size:63.31251526px;font-style:normal;font-variant:normal;font-weight:bold;font-stretch:normal;line-height:125%;letter-spacing:-9.87811661px;word-spacing:0px;fill:#ffffff;fill-opacity:1;stroke:none;font-family:OCRA;-inkscape-font-specification:OCRA Bold"
             x="106.13152"
             y="1013.1765"
             id="text3031"
             sodipodi:linespacing="125%"><tspan
               sodipodi:role="line"
               id="tspan3033"
               x="106.13152"
               y="1013.1765"
               dx="0 -4.1158819 -4.6479197 -4.0599365 0 -4.0599365 -5.76794 -4.0599365 -1.0640759 -6.3559237 -9.239893 -4.0599365 -3.4719534">SageMathCloud</tspan></text>
        </g>
      </g>
    </g>
  </g>
</svg>
